<svg xmlns="http://www.w3.org/2000/svg" height="48" width="48"><path style="fill-rule:evenodd;stroke-width:2.14559031" d="m36.025281 36.074105a2.1453423 2.1458384.0 0 1 3.03566.0l8.259567 8.261477a2.1457769 2.1462731.0 0 1-3.033514 3.036361l-8.259568-8.261477a2.1453423 2.1458384.0 0 1 0-3.036361z" /><ellipse ry="19.14653" rx="19.214327" cy="21.898306" cx="21.966103" style="fill:#fff;stroke:#fff;stroke-width:1.07982039;stroke-opacity:1" /><path style="fill-rule:evenodd;stroke-width:3.38461494" d="m21.999999 40.610548a18.615386 18.615386.0 1 0 0-37.2307724 18.615386 18.615386.0 0 0 0 37.2307724zm22-18.615388A22 22 0 1 1 6.4958463e-8 21.99516 22 22 0 0 1 43.999999 21.99516z" /><text y="31.491524" x="8.5084743"><tspan style="font-size:26.66666603px" y="31.491524" x="8.5084743">漢</tspan></text></svg>