<svg version="1.0" xmlns="http://www.w3.org/2000/svg" width="960pt" height="960pt" viewBox="0 0 960 960"><g transform="translate(0.000000,960.000000) scale(0.100000,-0.100000)" fill="#000" stroke="none"><path d="M4150 9594c-1281-90-2399-668-3187-1649-384-478-670-1052-824-1653-314-1226-89-2514 622-3562 312-460 708-857 1168-1169 1122-760 2524-963 3816-551 459 146 967 414 1338 704 54 42 101 76 105 76 3 0 396-389 872-863C9008-19 8950 32 9097 7c276-48 534 210 486 486-25 147 26 89-921 1038-611 613-862 871-856 880 4 7 40 54 78 104 39 49 112 151 162 225 939 1389 1004 3196 168 4652-589 1026-1567 1770-2719 2068-343 89-652 130-1030 134-143 2-285 2-315 0zm715-698c718-102 1323-359 1866-793 158-126 419-384 542-534 452-555 726-1192 823-1919 23-169 26-685 6-850-57-462-162-823-354-1220-355-737-935-1328-1668-17e2-555-281-1143-413-1773-397-566 14-1075 141-1572 391-381 192-676 405-975 705-583 585-942 1324-1057 2171-26 194-26 708 0 9e2 99 730 371 1362 825 1920 111 136 368 392 502 501 594 482 1265 760 2028 839 136 14 677 4 807-14z"/><path d="M42e2 7530v-230h-430-430v-165-165h430 430v-190-190h180 180v190 190h440 440v-190-190h185 185v190 190h470 470v165 165h-470-470v230 230h-185-185v-230-230H5e3h-440v230 230h-180-180v-230z"/><path d="M2306 7575c-58-74-106-138-106-142 0-5 57-37 127-73 230-119 526-315 690-457 39-35 74-63 76-63 3 0 56 69 117 153l112 152-65 61c-83 77-210 167-384 272-147 88-424 232-448 232-7 0-61-61-119-135z"/><path d="M3640 5895v-575h585 585v-175-175l-652-2-653-3-3-157-3-158h647 646l-7-42c-13-90-38-206-57-265l-19-63h-714-715v-160-160h626 626l-34-42c-224-288-674-542-1234-698-43-12-80-23-82-25-2-1 34-49 80-106s97-125 113-151c17-27 35-48 40-48 19 0 235 75 375 130 163 64 422 195 544 274 264 171 449 351 590 574 32 51 64 92 70 92s28-29 48-64c140-239 405-501 678-669 107-65 345-178 480-225 106-38 371-115 375-109 79 124 144 215 188 263l56 61-87 17c-546 107-997 338-1258 644l-66 77 686 3 686 2v160 160h-836-836l6 23c7 25 52 254 61 310l6 37h689 690v160 160h-685-685v175 175l613 2 612 3 3 573 2 572H5030 3640v-575zm1168 3 2-278h-415-415v273c0 151 3 277 7 280 4 4 189 6 412 5l406-3 3-277zm1242 2v-280h-430-430v280 280h430 430v-280z"/><path d="M2033 6153l-110-145 181-92c266-135 488-273 648-403 44-35 84-61 88-56 4 4 56 77 115 161l108 154-29 24c-49 41-273 189-379 249-105 61-434 226-483 243-29 10-30 8-139-135z"/><path d="M2899 4843c-266-589-522-1098-740-1470-49-84-89-156-89-160 1-8 317-234 336-240 9-3 195 347 337 632 99 2e2 289 606 394 845 52 118 97 218 99 221 3 5-139 117-289 227-16 12-20 7-48-55z"/></g></svg>