<?xml version="1.0" standalone="no"?>
<!DOCTYPE svg PUBLIC "-//W3C//DTD SVG 20010904//EN"
 "http://www.w3.org/TR/2001/REC-SVG-20010904/DTD/svg10.dtd">
<svg version="1.0" xmlns="http://www.w3.org/2000/svg"
 width="960.000000pt" height="960.000000pt" viewBox="0 0 960.000000 960.000000"
 preserveAspectRatio="xMidYMid meet">
<metadata>
Created by potrace 1.11, written by Peter Selinger 2001-2013
</metadata>
<g transform="translate(0.000000,960.000000) scale(0.100000,-0.100000)"
fill="#000000" stroke="none">
<path d="M4150 9594 c-1281 -90 -2399 -668 -3187 -1649 -384 -478 -670 -1052
-824 -1653 -314 -1226 -89 -2514 622 -3562 312 -460 708 -857 1168 -1169 1122
-760 2524 -963 3816 -551 459 146 967 414 1338 704 54 42 101 76 105 76 3 0
396 -389 872 -863 948 -946 890 -895 1037 -920 276 -48 534 210 486 486 -25
147 26 89 -921 1038 -611 613 -862 871 -856 880 4 7 40 54 78 104 39 49 112
151 162 225 939 1389 1004 3196 168 4652 -589 1026 -1567 1770 -2719 2068
-343 89 -652 130 -1030 134 -143 2 -285 2 -315 0z m715 -698 c718 -102 1323
-359 1866 -793 158 -126 419 -384 542 -534 452 -555 726 -1192 823 -1919 23
-169 26 -685 6 -850 -57 -462 -162 -823 -354 -1220 -355 -737 -935 -1328
-1668 -1700 -555 -281 -1143 -413 -1773 -397 -566 14 -1075 141 -1572 391
-381 192 -676 405 -975 705 -583 585 -942 1324 -1057 2171 -26 194 -26 708 0
900 99 730 371 1362 825 1920 111 136 368 392 502 501 594 482 1265 760 2028
839 136 14 677 4 807 -14z"/>
<path d="M4200 7530 l0 -230 -430 0 -430 0 0 -165 0 -165 430 0 430 0 0 -190
0 -190 180 0 180 0 0 190 0 190 440 0 440 0 0 -190 0 -190 185 0 185 0 0 190
0 190 470 0 470 0 0 165 0 165 -470 0 -470 0 0 230 0 230 -185 0 -185 0 0
-230 0 -230 -440 0 -440 0 0 230 0 230 -180 0 -180 0 0 -230z"/>
<path d="M2306 7575 c-58 -74 -106 -138 -106 -142 0 -5 57 -37 127 -73 230
-119 526 -315 690 -457 39 -35 74 -63 76 -63 3 0 56 69 117 153 l112 152 -65
61 c-83 77 -210 167 -384 272 -147 88 -424 232 -448 232 -7 0 -61 -61 -119
-135z"/>
<path d="M3640 5895 l0 -575 585 0 585 0 0 -175 0 -175 -652 -2 -653 -3 -3
-157 -3 -158 647 0 646 0 -7 -42 c-13 -90 -38 -206 -57 -265 l-19 -63 -714 0
-715 0 0 -160 0 -160 626 0 626 0 -34 -42 c-224 -288 -674 -542 -1234 -698
-43 -12 -80 -23 -82 -25 -2 -1 34 -49 80 -106 46 -57 97 -125 113 -151 17 -27
35 -48 40 -48 19 0 235 75 375 130 163 64 422 195 544 274 264 171 449 351
590 574 32 51 64 92 70 92 6 0 28 -29 48 -64 140 -239 405 -501 678 -669 107
-65 345 -178 480 -225 106 -38 371 -115 375 -109 79 124 144 215 188 263 l56
61 -87 17 c-546 107 -997 338 -1258 644 l-66 77 686 3 686 2 0 160 0 160 -836
0 -836 0 6 23 c7 25 52 254 61 310 l6 37 689 0 690 0 0 160 0 160 -685 0 -685
0 0 175 0 175 613 2 612 3 3 573 2 572 -1390 0 -1390 0 0 -575z m1168 3 l2
-278 -415 0 -415 0 0 273 c0 151 3 277 7 280 4 4 189 6 412 5 l406 -3 3 -277z
m1242 2 l0 -280 -430 0 -430 0 0 280 0 280 430 0 430 0 0 -280z"/>
<path d="M2033 6153 l-110 -145 181 -92 c266 -135 488 -273 648 -403 44 -35
84 -61 88 -56 4 4 56 77 115 161 l108 154 -29 24 c-49 41 -273 189 -379 249
-105 61 -434 226 -483 243 -29 10 -30 8 -139 -135z"/>
<path d="M2899 4843 c-266 -589 -522 -1098 -740 -1470 -49 -84 -89 -156 -89
-160 1 -8 317 -234 336 -240 9 -3 195 347 337 632 99 200 289 606 394 845 52
118 97 218 99 221 3 5 -139 117 -289 227 -16 12 -20 7 -48 -55z"/>
</g>
</svg>
